/* XPM */
static char *bank[]={
"16 16 3 1",
"# c #100400",
"a c #de4c08",
". c #ffffff",
"................",
"................",
"................",
"..#############.",
"..#aaaaaaaaaaa#.",
"..#aaaaaaaaaaa#.",
"..#aaaaaaaaaaa#.",
"..#aaaaaaaaaaa#.",
"..#aaaaaaaaaaa#.",
"..#aaaaaaaaaaa#.",
"..#aaaaaaaaaaa#.",
"..#aaaaaaaaaaa#.",
"..#############.",
"................",
"................",
"................"};
