/* XPM */
static char*kmymoney_newbank[]={
"22 22 5 1",
"c c #008000",
"a c #c05800",
"# c #000000",
". c None",
"b c #ffffff",
"......................",
"......................",
"......................",
"......................",
".####################.",
".#..#....#.....#....#.",
".#..#....#.....#....#.",
".#..#....#.....#....#.",
".#..#....#.....#....#.",
".####################.",
".#aa.....#.....#....#.",
".aaaa...a#....aa.a..a.",
".aaaaaaaa#aaaaaaaaaaa.",
".abbbaabbbaabbbaaaaaa.",
".abbbaabbbaabbba....a.",
".abbbaabbbaabbba....a.",
".abbbaabbbaabbba....a.",
".aaaaaaaaaaaaaaa....a.",
".aaaaaaaaaaaaaaa....a.",
".aaaaaaaaaaaaaaa....a.",
"caaaaaaaaaaaaaaaccccac",
"cccccccccccccccccccccc"};
