/* XPM */
static char*kmymoney_recon[]={
"22 22 5 1",
"c c #808080",
"# c #c0c0c0",
"a c #000000",
". c None",
"b c #ffffff",
".........##...........",
".aaaaaaaaaaaaaaaaaaa..",
".abbbbbbbbbbbbbbbbba..",
".acacacacacacacacaca..",
".abbbbbbbbbbbbbbbbba..",
".acacacacacacacacaca..",
".abbbbbbbbbbbbbbbbba..",
".acacacacacacacacaca..",
".aaaaaaaaaaaaaaaaaaa..",
"...####aaaaaaa###.....",
"...####aaaaaaa###.....",
"...##aaaaaaaaaaa#.....",
"...###aaaaaaaaa##.....",
"...####aaaaaaa###.....",
"...#####aaaaa####.....",
".aaaaaaaaaaaaaaaaaaaa.",
".abbbbbbbbbbbbbbbbbba.",
".acacacacacacacacacaa.",
".abbbbbbbbbbbbbbbbbba.",
".acacacacacacacacacaa.",
".aaaaaaaaaaaaaaaaaaaa.",
"......................"};
