/* XPM */
static char*kmymoney_editcat[]={
"22 22 4 1",
"b c #a0a0a0",
"# c #000000",
". c None",
"a c #ffffff",
"......................",
"......................",
"..##################..",
"..#aaaaaaaaaaaaa#bb#..",
"..#aaaaaaaaaaaaa#bb#..",
"..##################..",
"......................",
"..##################..",
"..#aaaaaaaaaaaaa#bb#..",
"..#aaaaaaaaaaaaa#bb#..",
"..##################..",
"......................",
"..##################..",
"..#aaaaaaaaaaaaa#bb#..",
"..#aaaaaaaaaaaaa#bb#..",
"..##################..",
"......................",
"..##################..",
"..#aaaaaaaaaaaaa#bb#..",
"..#aaaaaaaaaaaaa#bb#..",
"..##################..",
"......................"};
