/* XPM */
static char*kmymoney_up[]={
"22 22 3 1",
"a c #c0c0c0",
"# c #000000",
". c None",
"..........##..........",
".........####.........",
"........######........",
".......########.......",
"......##########......",
".....############.....",
"...a##############....",
"..a################...",
".a##################..",
"...aa############.....",
"...aa############.....",
"...aa############.....",
"...aa############.....",
"...aa############.....",
"...aa############.....",
"...aa############.....",
"...aa############.....",
"...aa############.....",
"...aa############.....",
"...aa############.....",
"...aaaaaaaaaaaaaa.....",
"......................"};
