/* XPM */
static char*kmymoney_editPay[]={
"22 22 6 1",
"b c #808080",
"d c #a0a0a0",
"a c #000000",
". c None",
"# c #00c000",
"c c #ffffff",
"......................",
"........#############.",
"........#aa#####aa###.",
"........##a####aaaa##.",
"........##a####aaaa##.",
"........##a#####aa###.",
".aaaaaaa##a####aaaa##.",
".abbbbbb#aaa##aaaaaa#.",
".aaaaaaa#############.",
".acccccccccccccccca...",
".adadadadadadadadaa...",
".acccccccccccccccca...",
".adadadadadadadadaa...",
".acccccccccccccccca...",
".adadadadadadadadaa...",
".acccccccccccccccca...",
".aaaaaaaaaaaaaaaaaa...",
".abbbbbbbbbbbbbbbba...",
".abbbbbbbbbbbbbbbba...",
".abbbbbbbbbbbbbbbba...",
".aaaaaaaaaaaaaaaaaa...",
"......................"};
