/* XPM */
static char*kmymoney_newacc[]={
"22 22 7 1",
"d c #008000",
"e c #a0a0a0",
"a c #c05800",
"c c #000000",
"# c #ffdca8",
". c None",
"b c #ffffff",
"....##############....",
"...################...",
"..##################..",
".####################.",
".aaaaaaaaaaaaaaaaaaaa.",
".aabbbaabbbaabbbabbba.",
".aabbbaabbbaabbbabbba.",
".aabbbaabbbaabbbabbba.",
".aaaaaaaaaaaaaaaaaaaa.",
".aaaaaaaaaaaaaaaaaaaa.",
".aabbbaabbbaabbbaccca.",
".aabbbaabbbaabbbaccca.",
".aabbbaabbbaabbbaccca.",
".accccccccccccccccccc.",
".acbbbbbbbbbbbbbbbbbc.",
"dacecececececececececd",
"ddcbbbbbbbbbbbbbbbbbcd",
"..cececececececececec.",
"..cbbbbbbbbbbbbbbbbbc.",
"..cececececececececec.",
"..ccccccccccccccccccc.",
"......................"};
