/* XPM */
static char*kmymoney_accfind[]={
"22 22 4 1",
"b c #a0a0a0",
"# c #000000",
". c None",
"a c #ffffff",
"......................",
".......####...........",
"......######..........",
".....##....##.........",
".....#.....##.........",
"...........##.........",
".........###..........",
".........##...........",
".........##...........",
".........##...........",
".........##...........",
"......................",
".........##...........",
"..###################.",
"..#aaaaaaaaaaaaaaaaa#.",
"..#b#b#b#b#b#b#b#b#b#.",
"..#aaaaaaaaaaaaaaaaa#.",
"..#b#b#b#b#b#b#b#b#b#.",
"..#aaaaaaaaaaaaaaaaa#.",
"..#b#b#b#b#b#b#b#b#b#.",
"..###################.",
"......................"};
